<?xml version="1.0" encoding="UTF-8" standalone="no"?>
<!-- Created with Inkscape (http://www.inkscape.org/) -->
<svg
   xmlns:dc="http://purl.org/dc/elements/1.1/"
   xmlns:cc="http://web.resource.org/cc/"
   xmlns:rdf="http://www.w3.org/1999/02/22-rdf-syntax-ns#"
   xmlns:svg="http://www.w3.org/2000/svg"
   xmlns="http://www.w3.org/2000/svg"
   xmlns:sodipodi="http://sodipodi.sourceforge.net/DTD/sodipodi-0.dtd"
   xmlns:inkscape="http://www.inkscape.org/namespaces/inkscape"
   width="601"
   height="751"
   id="svg2"
   sodipodi:version="0.32"
   inkscape:version="0.44"
   version="1.0"
   sodipodi:docbase="C:\Documents and Settings\ltljltlj\Desktop\Signs\Speed Limit Signs"
   sodipodi:docname="Speed Limit 5 sign (Outline).svg">
  <defs
     id="defs4" />
  <sodipodi:namedview
     id="base"
     pagecolor="#ffffff"
     bordercolor="#666666"
     borderopacity="1.0"
     gridtolerance="10000"
     guidetolerance="10"
     objecttolerance="10"
     inkscape:pageopacity="0.0"
     inkscape:pageshadow="2"
     inkscape:zoom="1.0293333"
     inkscape:cx="300"
     inkscape:cy="375"
     inkscape:document-units="px"
     inkscape:current-layer="layer1"
     width="601px"
     height="751px"
     inkscape:window-width="1280"
     inkscape:window-height="968"
     inkscape:window-x="-4"
     inkscape:window-y="-4" />
  <metadata
     id="metadata7">
    <rdf:RDF>
      <cc:Work
         rdf:about="">
        <dc:format>image/svg+xml</dc:format>
        <dc:type
           rdf:resource="http://purl.org/dc/dcmitype/StillImage" />
      </cc:Work>
    </rdf:RDF>
  </metadata>
  <g
     inkscape:label="Layer 1"
     inkscape:groupmode="layer"
     id="layer1">
    <path
       style="color:black;fill:white;fill-opacity:1;fill-rule:nonzero;stroke:black;stroke-width:1;stroke-linecap:butt;stroke-linejoin:miter;stroke-miterlimit:4;stroke-dashoffset:0;stroke-opacity:1;marker:none;marker-start:none;marker-mid:none;marker-end:none;visibility:visible;display:inline;overflow:visible"
       d="M 38,0.5 L 563,0.5 C 583.775,0.5 600.5,17.225 600.5,38 L 600.5,713 C 600.5,733.775 583.775,750.5 563,750.5 L 38,750.5 C 17.225,750.5 0.5,733.775 0.5,713 L 0.5,38 C 0.5,17.225 17.225,0.5 38,0.5 z "
       id="rect1872" />
    <path
       style="color:black;fill:black;fill-opacity:1;fill-rule:nonzero;stroke:none;stroke-width:0.8735441;stroke-linecap:butt;stroke-linejoin:miter;stroke-miterlimit:4;stroke-dashoffset:0;stroke-opacity:1;marker:none;marker-start:none;marker-mid:none;marker-end:none;visibility:visible;display:inline;overflow:visible"
       d="M 38,9.875 L 563,9.875 C 578.58125,9.875 591.125,22.41875 591.125,38 L 591.125,713 C 591.125,728.58125 578.58125,741.125 563,741.125 L 38,741.125 C 22.41875,741.125 9.875,728.58125 9.875,713 L 9.875,38 C 9.875,22.41875 22.41875,9.875 38,9.875 z "
       id="rect2760" />
    <path
       style="color:black;fill:white;fill-opacity:1;fill-rule:nonzero;stroke:none;stroke-width:0.8735441;stroke-linecap:butt;stroke-linejoin:miter;stroke-miterlimit:4;stroke-dashoffset:0;stroke-opacity:1;marker:none;marker-start:none;marker-mid:none;marker-end:none;visibility:visible;display:inline;overflow:visible"
       d="M 38,25.5 L 563,25.5 C 569.925,25.5 575.5,31.075 575.5,38 L 575.5,713 C 575.5,719.925 569.925,725.5 563,725.5 L 38,725.5 C 31.075,725.5 25.5,719.925 25.5,713 L 25.5,38 C 25.5,31.075 31.075,25.5 38,25.5 z "
       id="rect2762" />
    <path
       transform="scale(1.011909,0.988231)"
       style="font-size:151.02732849px;font-style:normal;font-variant:normal;font-weight:normal;font-stretch:normal;text-align:center;line-height:125%;writing-mode:lr-tb;text-anchor:middle;font-family:Roadgeek 2005 Series E"
       d="M 142.41021,173.43621 C 142.41012,183.70813 137.6767,191.61254 128.20992,197.14946 C 124.68858,199.36485 120.71257,201.05097 116.28186,202.20782 C 111.85103,203.36468 107.2697,203.94311 102.53786,203.94311 C 93.777665,203.94311 86.049936,202.35762 79.354645,199.18663 C 72.659302,196.01565 66.441783,191.10709 60.702069,184.46091 L 75.201946,173.13663 C 79.027381,177.56436 83.054865,180.78527 87.284409,182.79937 C 91.513886,184.81352 96.496966,185.82058 102.23366,185.82057 C 108.67697,185.82058 113.96271,184.58768 118.09089,182.12185 C 122.21894,179.65607 124.28299,176.5089 124.28306,172.68034 C 124.28299,168.65519 122.169,165.58561 117.94109,163.47158 C 116.12816,162.76491 114.24002,162.05897 112.27665,161.35375 C 110.31316,160.64862 108.17459,160.04561 105.86094,159.54472 L 101.1782,158.18507 L 96.495472,157.125 L 91.665252,155.61787 C 86.429409,154.40729 82.325877,153.07222 79.354645,151.61265 C 76.383361,150.15319 73.840738,148.21589 71.726769,145.80072 C 69.612764,143.484 68.027273,140.86532 66.970293,137.9447 C 65.913286,135.02421 65.384789,131.95385 65.384801,128.73364 C 65.384789,124.50574 66.240524,120.67951 67.952008,117.25495 C 69.663463,113.83056 72.029407,110.88542 75.04985,108.41952 C 78.070249,105.95381 81.719796,104.04108 85.998501,102.68133 C 90.277142,101.32178 94.985219,100.64196 100.12275,100.64185 C 107.67221,100.64196 114.54344,101.90021 120.73645,104.41661 C 126.92932,106.93322 132.59299,110.86007 137.72748,116.19719 L 124.28306,128.28196 C 117.94103,121.63588 109.8876,118.3128 100.12275,118.31271 C 94.985219,118.3128 90.982317,119.24381 88.114027,121.10576 C 85.245668,122.96787 83.811506,125.5105 83.811536,128.73364 C 83.811506,130.14406 84.062696,131.37773 84.565106,132.43465 C 85.067454,133.49172 85.923189,134.44808 87.132312,135.30375 C 88.341369,136.15955 89.977558,136.94001 92.040885,137.64512 C 94.104135,138.35036 96.696688,139.05476 99.818553,139.75834 C 106.56299,141.16875 112.20131,142.57833 116.73354,143.98708 C 121.26564,145.39596 124.94054,146.80554 127.75824,148.21583 C 132.29033,150.53267 135.86537,153.93102 138.48336,158.41091 C 141.10117,162.89089 142.41012,167.89932 142.41021,173.43621 L 142.41021,173.43621 z M 243.55907,132.66049 C 243.55898,135.27847 243.20716,137.89637 242.50361,140.51421 C 241.79988,143.13218 240.76824,145.59875 239.40868,147.91394 C 238.04894,150.22924 236.41275,152.36858 234.50011,154.33196 C 232.58729,156.29543 230.42184,157.93162 228.00374,159.24053 C 225.08464,160.85065 222.29082,161.90764 219.62229,162.41151 C 216.95362,162.91547 213.70659,163.16743 209.8812,163.16739 L 181.03815,163.16739 L 181.03815,202.88765 L 162.61141,202.88765 L 162.61141,101.69731 L 209.8812,101.69731 C 213.70659,101.69741 216.95362,102.00007 219.62229,102.60528 C 222.29082,103.2107 225.08464,104.31839 228.00374,105.92836 C 232.83695,108.54636 236.63782,112.22126 239.40637,116.95306 C 242.17475,121.68504 243.55898,126.92084 243.55907,132.66049 L 243.55907,132.66049 z M 225.43653,132.66049 C 225.43645,128.73371 224.07757,125.61266 221.35988,123.29734 C 218.64204,120.98217 215.01708,119.82455 210.48497,119.82446 L 181.03815,119.82446 L 181.03815,145.04485 L 210.48497,145.04485 C 215.01708,145.0449 218.64204,143.91186 221.35988,141.64572 C 224.07757,139.3797 225.43645,136.38462 225.43653,132.66049 L 225.43653,132.66049 z M 260.54319,202.88765 L 260.54319,101.69731 L 334.39301,101.69731 L 334.39301,119.82446 L 278.96992,119.82446 L 278.96992,138.55078 L 309.17262,138.55078 L 309.17262,157.125 L 278.96992,157.125 L 278.96992,184.76511 L 336.20895,184.76511 L 336.20895,202.88765 L 260.54319,202.88765 z M 356.41016,202.88765 L 356.41016,101.69731 L 430.25998,101.69731 L 430.25998,119.82446 L 374.8369,119.82446 L 374.8369,138.55078 L 405.0396,138.55078 L 405.0396,157.125 L 374.8369,157.125 L 374.8369,184.76511 L 432.07592,184.76511 L 432.07592,202.88765 L 356.41016,202.88765 z M 533.22477,152.14269 C 533.22467,162.31323 531.16062,171.174 527.03259,178.72503 C 522.90439,186.2761 516.81362,192.31618 508.76026,196.84527 C 505.23585,198.86093 501.40963,200.37191 497.28157,201.37821 C 493.1534,202.3845 489.02606,202.88765 484.89953,202.88765 L 452.27711,202.88765 L 452.27711,101.69731 L 484.89953,101.69731 C 493.55822,101.69741 501.61319,103.81294 509.06445,108.04389 C 516.91502,112.57308 522.90439,118.53787 527.03259,125.93829 C 531.16062,133.33885 533.22467,142.07365 533.22477,152.14269 L 533.22477,152.14269 z M 515.10223,152.14269 C 515.10215,145.29686 513.86925,139.55791 511.40351,134.92581 C 508.93763,130.29385 505.18669,126.56902 500.15067,123.75132 C 495.52011,121.1335 490.43641,119.82455 484.89953,119.82446 L 470.70384,119.82446 L 470.70384,184.76511 L 484.89953,184.76511 C 490.23361,184.76513 495.11606,183.45617 499.54689,180.83825 C 509.91704,175.39967 515.10215,165.83449 515.10223,152.14269 L 515.10223,152.14269 z "
       id="text2774" />
    <path
       transform="scale(1.000024,0.999976)"
       style="font-size:149.25358582px;font-style:normal;font-variant:normal;font-weight:normal;font-stretch:normal;text-align:center;line-height:125%;writing-mode:lr-tb;text-anchor:middle;font-family:Roadgeek 2005 Series E"
       d="M 117.67219,350.50839 L 117.67219,250.50649 L 135.58189,250.50649 L 135.58189,335.13575 L 192.4493,335.13575 L 192.4493,350.50839 L 117.67219,350.50839 z M 209.49813,350.50839 L 209.49813,250.50649 L 227.40783,250.50649 L 227.40783,350.50839 L 209.49813,350.50839 z M 329.63251,350.50839 L 329.63251,289.46419 L 300.2309,350.50839 L 271.12536,289.46419 L 271.12536,350.50839 L 253.51628,350.50839 L 253.51628,250.50649 L 271.12536,250.50649 L 300.2309,309.76063 L 329.63251,250.50649 L 347.24615,250.50649 L 347.24615,350.50839 L 329.63251,350.50839 z M 373.32725,350.50839 L 373.32725,250.50649 L 391.23695,250.50649 L 391.23695,350.50839 L 373.32725,350.50839 z M 454.5085,268.12012 L 454.5085,350.50839 L 437.04517,350.50839 L 437.04517,268.12012 L 408.24025,268.12012 L 408.24025,250.50649 L 483.31342,250.50649 L 483.31342,268.12012 L 454.5085,268.12012 z "
       id="text2780" />
    <path
       style="font-size:373.12701416px;font-style:normal;font-variant:normal;font-weight:normal;font-stretch:normal;text-align:center;line-height:125%;writing-mode:lr-tb;text-anchor:middle;font-family:Roadgeek 2005 Series E"
       d="M 401.43354,564.67669 C 401.43332,577.86283 398.82003,589.9899 393.59364,601.05794 C 388.36683,612.12607 381.09059,621.64175 371.76489,629.60498 C 362.43881,637.56825 351.3081,643.78741 338.37271,648.26247 C 325.43701,652.73753 311.38175,654.97506 296.2069,654.97506 C 279.0429,654.97506 262.62485,652.6749 246.95272,648.07458 C 231.28046,643.47427 215.4849,636.44854 199.566,626.99737 L 223.06863,588.93085 C 245.46287,602.618 269.84226,609.46154 296.2069,609.46149 C 315.10907,609.46154 329.90828,605.54254 340.60455,597.70449 C 351.3005,589.86654 356.64856,578.85729 356.64874,564.67669 C 356.64856,557.96608 355.2195,551.56284 352.36156,545.46693 C 349.50327,539.37124 345.70953,534.33442 340.98032,530.35647 C 332.27296,523.3878 318.71493,519.9034 300.30619,519.90327 C 292.0999,519.9034 284.32833,520.64924 276.99145,522.1408 C 269.65438,523.63262 261.38178,526.12066 252.17363,529.60493 L 207.40021,518.03581 L 215.23442,400.49989 L 382.03021,400.49989 L 381.27867,444.53316 L 257.40023,444.53316 L 254.79262,480.35645 C 264.98764,478.11719 273.56769,476.50025 280.53278,475.50562 C 287.49769,474.51133 294.96181,474.0141 302.92519,474.01393 C 317.10558,474.0141 330.22711,476.31426 342.28981,480.91441 C 354.3522,485.5149 364.7997,491.85741 373.63235,499.94197 C 382.46461,508.02684 389.30625,517.60324 394.15729,528.67121 C 399.00791,539.73942 401.43332,551.74123 401.43354,564.67669 L 401.43354,564.67669 z "
       id="text2786" />
  </g>
</svg>
